<svg width="40" height="40" viewBox="0 0 40 40" fill="none" xmlns="http://www.w3.org/2000/svg">
<rect width="40" height="40" rx="8" fill="#8D919D"/>
<path d="M18.9225 14.3636V15.875H13.4225V26H11.6668V14.3636H18.9225ZM20.4212 26V14.3636H24.6826C25.5083 14.3636 26.1921 14.5 26.7337 14.7727C27.2754 15.0417 27.6807 15.4072 27.9496 15.8693C28.2186 16.3277 28.353 16.8447 28.353 17.4205C28.353 17.9053 28.264 18.3144 28.086 18.6477C27.908 18.9773 27.6693 19.2424 27.3701 19.4432C27.0746 19.6402 26.7489 19.7841 26.3928 19.875V19.9886C26.7792 20.0076 27.1561 20.1326 27.5235 20.3636C27.8947 20.5909 28.2015 20.9148 28.4439 21.3352C28.6864 21.7557 28.8076 22.267 28.8076 22.8693C28.8076 23.464 28.6674 23.9981 28.3871 24.4716C28.1106 24.9413 27.6826 25.3144 27.103 25.5909C26.5235 25.8636 25.783 26 24.8814 26H20.4212ZM22.1769 24.4943H24.711C25.5519 24.4943 26.1542 24.3314 26.5178 24.0057C26.8814 23.6799 27.0633 23.2727 27.0633 22.7841C27.0633 22.4167 26.9705 22.0795 26.7849 21.7727C26.5993 21.4659 26.3341 21.2216 25.9894 21.0398C25.6485 20.858 25.2432 20.767 24.7735 20.767H22.1769V24.4943ZM22.1769 19.3977H24.5292C24.9231 19.3977 25.2773 19.322 25.5917 19.1705C25.9099 19.0189 26.1618 18.8068 26.3474 18.5341C26.5368 18.2576 26.6314 17.9318 26.6314 17.5568C26.6314 17.0758 26.4629 16.6723 26.1258 16.3466C25.7886 16.0208 25.2716 15.858 24.5746 15.858H22.1769V19.3977Z" fill="white"/>
</svg>
